<?xml version="1.0" standalone="no"?>
<!DOCTYPE svg PUBLIC "-//W3C//DTD SVG 20010904//EN"
 "http://www.w3.org/TR/2001/REC-SVG-20010904/DTD/svg10.dtd">
<svg version="1.0" xmlns="http://www.w3.org/2000/svg"
 width="1080.000000pt" height="1080.000000pt" viewBox="0 0 1080.000000 1080.000000"
 preserveAspectRatio="xMidYMid meet">
<metadata>
Created by potrace 1.14, written by Peter Selinger 2001-2017
</metadata>
<g transform="translate(0.000000,1080.000000) scale(0.100000,-0.100000)"
fill="#000000" stroke="none">
<path d="M3557 8364 c-1 -1 -85 -5 -187 -9 -186 -7 -217 -9 -345 -20 -38 -3
-99 -8 -135 -11 -36 -3 -76 -7 -90 -9 -14 -2 -79 -11 -145 -20 -66 -9 -133
-18 -150 -21 -34 -6 -300 -53 -330 -59 -442 -86 -613 -125 -650 -149 -13 -8
-27 -28 -32 -43 -6 -17 -9 -1111 -9 -2782 1 -2201 4 -2755 14 -2759 6 -2 10
-8 7 -12 -3 -5 8 -16 24 -25 26 -13 102 -15 556 -15 571 0 568 0 593 55 9 20
12 573 12 2364 l0 2338 48 7 c26 4 56 9 67 11 91 16 235 33 418 50 257 24 560
27 688 8 257 -38 408 -108 542 -253 124 -133 201 -296 257 -539 35 -156 49
-257 77 -556 3 -38 8 -819 10 -1735 2 -1210 6 -1673 14 -1693 24 -57 20 -57
593 -57 508 0 527 1 558 20 18 11 30 20 25 20 -4 0 -1 10 6 23 11 18 13 310
12 1707 -2 1635 -4 1834 -26 2045 -25 249 -64 484 -109 648 l-19 68 52 33
c151 96 424 204 595 236 31 5 66 12 77 14 11 2 43 7 70 10 28 3 68 9 90 12 22
3 124 7 226 8 252 4 444 -27 590 -94 140 -65 270 -191 353 -341 51 -93 110
-260 132 -374 2 -11 6 -31 9 -45 11 -53 18 -97 29 -195 14 -115 17 -152 32
-370 4 -44 7 -816 9 -1715 1 -899 4 -1637 5 -1640 1 -3 2 -8 1 -12 0 -5 4 -8
10 -8 5 0 8 -4 5 -8 -3 -5 11 -16 30 -25 31 -15 90 -17 555 -17 569 0 564 0
588 58 9 23 11 445 8 1848 -2 1000 -7 1830 -9 1844 -3 14 -9 63 -12 110 -7 87
-14 156 -21 200 -2 14 -6 50 -10 80 -8 72 -32 211 -51 305 -47 231 -175 534
-311 738 -69 102 -217 262 -316 341 -211 166 -558 318 -827 360 -19 3 -46 8
-60 10 -234 43 -735 53 -960 20 -114 -17 -225 -38 -295 -56 -44 -11 -88 -21
-97 -23 -28 -6 -246 -74 -333 -105 -209 -73 -474 -202 -622 -302 l-43 -29 -59
55 c-300 276 -713 438 -1201 472 -83 5 -528 12 -533 8z"/>
</g>
</svg>
